<?xml version="1.0" encoding="UTF-8"?>
<svg id="Layer_1" data-name="Layer 1" xmlns="http://www.w3.org/2000/svg" viewBox="0 0 940.91 1000">
  <defs>
    <style>
      .cls-1 {
        fill: #004028;
        fill-rule: evenodd;
        stroke-width: 0px;
      }
    </style>
  </defs>
  <path class="cls-1" d="M352.71,1000h235.41c64.66,0,117.56-52.9,117.56-117.56,0-19.65.04-39.25.04-58.88h.09c.02-32.43,26.28-58.71,58.7-58.77v-.09h58.81c64.68,0,117.59-52.92,117.59-117.59s-52.91-117.66-117.59-117.66c-59.15,0-118.19-.05-177.31-.05-32.05-.5-57.88-26.63-57.88-58.8l-.03-58.81c0-16.21-13.26-29.47-29.47-29.47h-176.39c-16.21,0-29.47,13.26-29.47,29.47v14.68h-58.81c-32.46-.02-58.77-26.34-58.77-58.81v-73.54c0-32.49,26.3-58.8,58.77-58.82v-.05l360.27.09c40.09,1.96,68.3,41.04,57.65,79.71-4.07,11.89-6.15,24.62-6.15,37.84,0,64.77,52.91,117.66,117.59,117.66s117.59-52.92,117.59-117.59c0-79.77-79.61-137.22-155.26-111.44-38.98,10.89-78.3-17.94-79.97-58.64h0v-67.19c-1-63.35-52.77-114.96-116.18-115.69h-238.14c-64.04.74-116.2,53.35-116.2,117.55,0,19.66-.03,39.25-.05,58.89-.02,32.42-26.29,58.71-58.7,58.77l-58.81.09C52.92,235.3,0,288.22,0,352.89s52.91,117.66,117.59,117.66c59.15,0,118.19.05,177.31.05,31.51.49,57.01,25.75,57.86,57.17v60.42c0,16.21,13.26,29.47,29.47,29.47h176.39c16.21,0,29.47-13.26,29.47-29.47v-14.66h58.87c32.46.02,58.77,26.34,58.77,58.81v73.54c0,32.48-26.31,58.8-58.77,58.83v.05h-360.27v-.09c-40.36-1.97-68.32-40.95-57.65-79.71,4.17-12.18,6.15-24.97,6.15-37.84,0-64.77-52.91-117.66-117.59-117.66S0,582.37,0,647.04c0,80.55,79.7,137.19,155.26,111.43,39.05-10.91,78.32,18.35,79.97,58.65v69.99c2.48,62.51,54.38,112.89,117.47,112.89Z"/>
</svg>