<?xml version="1.0" encoding="UTF-8"?>
<svg id="Layer_2" data-name="Layer 2" xmlns="http://www.w3.org/2000/svg" viewBox="0 0 273.68 116.86">
  <defs>
    <style>
      .cls-1 {
        fill: #00aeef;
      }
    </style>
  </defs>
  <g id="Layer_1-2" data-name="Layer 1">
    <g>
      <path class="cls-1" d="m61.95,116.86c-20.18,0-35.55-4.96-46.11-14.87C5.28,92.08,0,77.91,0,59.49S5.46,25.81,16.37,15.49C27.28,5.16,43.24,0,64.24,0c7.04,0,13.4.41,19.1,1.23,5.69.82,11.06,2.05,16.1,3.7v28.34c-5.16-1.99-10.5-3.34-16.02-4.05-5.52-.7-11.15-1.06-16.9-1.06-10.91,0-19.1,2.46-24.55,7.39-5.46,4.93-8.18,12.91-8.18,23.94,0,10.33,2.38,17.78,7.13,22.35,4.75,4.58,11.76,6.86,21.03,6.86,3.05,0,5.92-.2,8.62-.62,2.7-.41,5.22-.97,7.57-1.67v-16.54h-22.53v-20.42h50.16v57.02c-4.34,2.7-10.12,5.1-17.34,7.22-7.22,2.11-16.05,3.17-26.49,3.17Z"/>
      <path class="cls-1" d="m133.41,115.1V32.38l-18.83,2.82V7.57L166.49,0v115.1h-33.09Z"/>
      <path class="cls-1" d="m220.17,116.86c-6.34,0-11.82-.32-16.46-.97-4.64-.65-9.18-1.79-13.64-3.43v-25.7c4.11,1.76,8.3,2.99,12.58,3.7,4.28.7,9.06,1.06,14.34,1.06,8.68,0,15.14-1.64,19.36-4.93,4.22-3.28,6.34-7.22,6.34-11.79v-3.34c-2.93,1.88-6.66,3.4-11.18,4.58-4.52,1.17-8.71,1.76-12.58,1.76-13.96,0-24.14-3.28-30.54-9.86-6.4-6.57-9.59-15.9-9.59-27.98,0-7.74,1.58-14.64,4.75-20.68,3.17-6.04,8.21-10.76,15.14-14.17,6.92-3.4,16.02-5.1,27.28-5.1,16.43,0,28.48,3.84,36.17,11.53,7.68,7.69,11.53,19.16,11.53,34.41v21.82c0,9.39-2.14,17.81-6.42,25.26-4.28,7.45-10.41,13.29-18.39,17.51-7.98,4.22-17.54,6.34-28.69,6.34Zm5.1-62.66c2.93,0,5.92-.53,8.98-1.58,3.05-1.06,5.87-2.35,8.45-3.87v-8.1c0-5.98-1.38-10.35-4.14-13.11-2.76-2.76-7.07-4.14-12.94-4.14s-10.06,1.35-12.94,4.05c-2.88,2.7-4.31,6.45-4.31,11.26s1.23,8.74,3.7,11.44c2.46,2.7,6.86,4.05,13.2,4.05Z"/>
    </g>
  </g>
</svg>